<svg xmlns="http://www.w3.org/2000/svg" viewBox="0 0 1024 1024" role="img" aria-labelledby="title desc">
<title id="title">Pareja Balance</title><desc id="desc">Dos tarjetas unidas por un corazón con un signo igual.</desc>
<defs>
 <linearGradient id="bg" x1="126" y1="84" x2="866" y2="944" gradientUnits="userSpaceOnUse"><stop stop-color="#16233B"/><stop offset=".46" stop-color="#08111F"/><stop offset="1" stop-color="#10182A"/></linearGradient>
 <radialGradient id="glow"><stop stop-color="#285889" stop-opacity=".28"/><stop offset="1" stop-color="#07101E" stop-opacity="0"/></radialGradient>
 <linearGradient id="blue" x1="326" y1="238" x2="550" y2="786" gradientUnits="userSpaceOnUse"><stop stop-color="#3ADAF4"/><stop offset=".35" stop-color="#137EFF"/><stop offset=".72" stop-color="#073BFA"/><stop offset="1" stop-color="#0A66FF"/></linearGradient>
 <linearGradient id="green" x1="720" y1="232" x2="532" y2="794" gradientUnits="userSpaceOnUse"><stop stop-color="#55F1A3"/><stop offset=".42" stop-color="#08D58A"/><stop offset=".76" stop-color="#00B984"/><stop offset="1" stop-color="#1BE5B4"/></linearGradient>
 <linearGradient id="sheen" x1="0" y1="0" x2="0" y2="1"><stop stop-color="white" stop-opacity=".34"/><stop offset="1" stop-color="white" stop-opacity="0"/></linearGradient>
 <linearGradient id="heart" x1="416" y1="350" x2="592" y2="692" gradientUnits="userSpaceOnUse"><stop stop-color="#FF776F" stop-opacity=".9"/><stop offset=".32" stop-color="#FF3F58" stop-opacity=".94"/><stop offset=".73" stop-color="#E40855"/><stop offset="1" stop-color="#C8004A"/></linearGradient>
 <linearGradient id="heartHi" x1="512" y1="352" x2="512" y2="596" gradientUnits="userSpaceOnUse"><stop stop-color="#FFD0AD" stop-opacity=".62"/><stop offset="1" stop-color="#FF6B8C" stop-opacity="0"/></linearGradient>
 <filter id="shadow" x="-25%" y="-25%" width="150%" height="165%" color-interpolation-filters="sRGB"><feDropShadow dy="18" stdDeviation="20" flood-color="#00050D" flood-opacity=".55"/></filter>
</defs>
<rect width="1024" height="1024" fill="url(#bg)"/><rect width="1024" height="1024" fill="url(#glow)"/>
<g filter="url(#shadow)">
 <g transform="rotate(-43 400 515)"><rect x="216" y="286" width="368" height="458" rx="72" fill="url(#blue)"/><rect x="219" y="289" width="362" height="452" rx="69" fill="none" stroke="#A8F3FF" stroke-opacity=".43" stroke-width="5"/><path d="M288 289h224a69 69 0 0 1 69 69v75c-105-65-227-91-362-76a69 69 0 0 1 69-68Z" fill="url(#sheen)"/></g>
 <g transform="rotate(43 624 515)"><rect x="440" y="286" width="368" height="458" rx="72" fill="url(#green)"/><rect x="443" y="289" width="362" height="452" rx="69" fill="none" stroke="#C4FFE1" stroke-opacity=".44" stroke-width="5"/><path d="M512 289h224a69 69 0 0 1 69 69v75c-105-65-227-91-362-76a69 69 0 0 1 69-68Z" fill="url(#sheen)"/></g>
</g>
<rect x="253" y="353" width="126" height="68" rx="19" fill="white" fill-opacity=".88" transform="rotate(-43 316 387)"/><rect x="645" y="353" width="126" height="68" rx="19" fill="white" fill-opacity=".88" transform="rotate(43 708 387)"/>
<g filter="url(#shadow)"><path d="M512 713 379 584c-54-52-62-126-18-171 40-41 105-40 151 8 46-48 111-49 151-8 44 45 36 119-18 171L512 713Z" fill="url(#heart)" stroke="#FF9297" stroke-opacity=".42" stroke-width="4"/><path d="M512 421c-46-48-111-49-151-8-38 39-38 99-3 148 4-64 44-107 97-107 22 0 42 8 57 24 15-16 35-24 57-24 53 0 93 43 97 107 35-49 35-109-3-148-40-41-105-40-151 8Z" fill="url(#heartHi)"/></g>
<g fill="white"><rect x="436" y="491" width="152" height="38" rx="19"/><rect x="436" y="551" width="152" height="38" rx="19"/></g>
</svg>
